<svg xmlns="http://www.w3.org/2000/svg" width="1200" height="630" viewBox="0 0 1200 630">
  <defs>
    <linearGradient id="bg-grad" x1="0%" y1="0%" x2="100%" y2="100%">
      <stop offset="0%" stop-color="#0a0a0a"/>
      <stop offset="100%" stop-color="#141414"/>
    </linearGradient>
    <linearGradient id="accent-grad" x1="0%" y1="0%" x2="100%" y2="0%">
      <stop offset="0%" stop-color="#6366f1" stop-opacity="0.15"/>
      <stop offset="100%" stop-color="#6366f1" stop-opacity="0"/>
    </linearGradient>
  </defs>

  <rect width="1200" height="630" fill="url(#bg-grad)"/>
  <rect width="1200" height="630" fill="url(#accent-grad)"/>

  <rect x="60" y="60" width="1080" height="510" rx="16" fill="#111111" stroke="#6366f1" stroke-opacity="0.2" stroke-width="1"/>

  <rect x="60" y="60" width="4" height="510" rx="2" fill="#6366f1"/>

  <g transform="translate(140, 200)">
    <path d="M -35 -25 L -10 -30 L 15 -25 L 35 -30 L 35 25 L 10 30 L -15 25 L -35 30 Z" fill="none" stroke="#6366f1" stroke-width="3" opacity="0.9"/><line x1="-10" y1="-30" x2="-10" y2="28" stroke="#6366f1" stroke-width="2.0999999999999996" opacity="0.9"/><line x1="15" y1="-25" x2="15" y2="28" stroke="#6366f1" stroke-width="2.0999999999999996" opacity="0.9"/>
  </g>

  <text x="260" y="220" font-family="Inter, -apple-system, BlinkMacSystemFont, sans-serif" font-size="52" font-weight="800" fill="#fafafa">pmtiles-kit</text>

  <text x="260" y="270" font-family="Inter, -apple-system, BlinkMacSystemFont, sans-serif" font-size="28" font-weight="400" fill="#a0a0a0">Inspect, validate, convert, preview tile archives</text>

  <text x="140" y="500" font-family="JetBrains Mono, monospace" font-size="18" fill="#a0a0a0" opacity="0.6">github.com/tabibhasann/pmtiles-kit</text>

  <circle cx="1080" cy="100" r="40" fill="#6366f1" opacity="0.08"/>
  <circle cx="1080" cy="100" r="25" fill="#6366f1" opacity="0.12"/>
  <circle cx="1080" cy="100" r="12" fill="#6366f1" opacity="0.2"/>
</svg>